HIERARCHY
ROOT Hips
{
	OFFSET 0.00000 0.00000 0.00000
	CHANNELS 6 Xposition Yposition Zposition Zrotation Yrotation Xrotation 
	JOINT LHipJoint
	{
		OFFSET 0 0 0
		CHANNELS 3 Zrotation Yrotation Xrotation
		JOINT LeftUpLeg
		{
			OFFSET 1.35324 -1.81393 0.86676
			CHANNELS 3 Zrotation Yrotation Xrotation
			JOINT LeftLeg
			{
				OFFSET 2.44396 -6.71474 0.00000
				CHANNELS 3 Zrotation Yrotation Xrotation
				JOINT LeftFoot
				{
					OFFSET 2.78389 -7.64869 0.00000
					CHANNELS 3 Zrotation Yrotation Xrotation
					JOINT LeftToeBase
					{
						OFFSET 0.15837 -0.43512 1.94704
						CHANNELS 3 Zrotation Yrotation Xrotation
						End Site
						{
							OFFSET 0.00000 -0.00000 1.00735
						}
					}
				}
			}
		}
	}
	JOINT RHipJoint
	{
		OFFSET 0 0 0
		CHANNELS 3 Zrotation Yrotation Xrotation
		JOINT RightUpLeg
		{
			OFFSET -1.14956 -1.81393 0.86676
			CHANNELS 3 Zrotation Yrotation Xrotation
			JOINT RightLeg
			{
				OFFSET -2.55632 -7.02343 0.00000
				CHANNELS 3 Zrotation Yrotation Xrotation
				JOINT RightFoot
				{
					OFFSET -2.63038 -7.22691 0.00000
					CHANNELS 3 Zrotation Yrotation Xrotation
					JOINT RightToeBase
					{
						OFFSET -0.22277 -0.61205 2.06087
						CHANNELS 3 Zrotation Yrotation Xrotation
						End Site
						{
							OFFSET -0.00000 -0.00000 1.07867
						}
					}
				}
			}
		}
	}
	JOINT LowerBack
	{
		OFFSET 0 0 0
		CHANNELS 3 Zrotation Yrotation Xrotation
		JOINT Spine
		{
			OFFSET -0.05682 2.18266 -0.21665
			CHANNELS 3 Zrotation Yrotation Xrotation
			JOINT Spine1
			{
				OFFSET 0.08791 2.18267 0.00700
				CHANNELS 3 Zrotation Yrotation Xrotation
				JOINT Neck
				{
					OFFSET 0 0 0
					CHANNELS 3 Zrotation Yrotation Xrotation
					JOINT Neck1
					{
						OFFSET -0.14851 1.58495 0.25390
						CHANNELS 3 Zrotation Yrotation Xrotation
						JOINT Head
						{
							OFFSET 0.13566 1.62237 -0.28476
							CHANNELS 3 Zrotation Yrotation Xrotation
							End Site
							{
								OFFSET 0.05601 1.65818 -0.12921
							}
						}
					}
				}
				JOINT LeftShoulder
				{
					OFFSET 0 0 0
					CHANNELS 3 Zrotation Yrotation Xrotation
					JOINT LeftArm
					{
						OFFSET 3.23337 0.97114 -0.51072
						CHANNELS 3 Zrotation Yrotation Xrotation
						JOINT LeftForeArm
						{
							OFFSET 5.19964 -0.00068 -0.00051
							CHANNELS 3 Zrotation Yrotation Xrotation
							JOINT LeftHand
							{
								OFFSET 3.32189 -0.00000 0.00000
								CHANNELS 3 Zrotation Yrotation Xrotation
								JOINT LeftFingerBase
								{
									OFFSET 0 0 0
									CHANNELS 3 Zrotation Yrotation Xrotation
									JOINT LeftHandIndex1
									{
										OFFSET 0.64562 -0.00000 0.00000
										CHANNELS 3 Zrotation Yrotation Xrotation
										End Site
										{
											OFFSET 0.52051 -0.00000 0.00000
										}
									}
								}
								JOINT LThumb
								{
									OFFSET 0 0 0
									CHANNELS 3 Zrotation Yrotation Xrotation
									End Site
									{
										OFFSET 0.52846 -0.00000 0.52846
									}
								}
							}
						}
					}
				}
				JOINT RightShoulder
				{
					OFFSET 0 0 0
					CHANNELS 3 Zrotation Yrotation Xrotation
					JOINT RightArm
					{
						OFFSET -2.95712 1.24697 -0.52388
						CHANNELS 3 Zrotation Yrotation Xrotation
						JOINT RightForeArm
						{
							OFFSET -5.65950 -0.00000 -0.00000
							CHANNELS 3 Zrotation Yrotation Xrotation
							JOINT RightHand
							{
								OFFSET -3.37604 -0.00000 -0.00000
								CHANNELS 3 Zrotation Yrotation Xrotation
								JOINT RightFingerBase
								{
									OFFSET 0 0 0
									CHANNELS 3 Zrotation Yrotation Xrotation
									JOINT RightHandIndex1
									{
										OFFSET -0.82470 -0.00000 -0.00000
										CHANNELS 3 Zrotation Yrotation Xrotation
										End Site
										{
											OFFSET -0.66490 -0.00000 -0.00000
										}
									}
								}
								JOINT RThumb
								{
									OFFSET 0 0 0
									CHANNELS 3 Zrotation Yrotation Xrotation
									End Site
									{
										OFFSET -0.67505 -0.00000 0.67505
									}
								}
							}
						}
					}
				}
			}
		}
	}
}
MOTION
Frames: 7
Frame Time: .0083333
10.1797 17.7470 -14.9208 -1.2339 -31.6468 3.8106 0.0000 0.0000 0.0000 -19.8404 -6.2309 -15.2868 3.8821 12.0018 35.7382 1.4715 0.3752 -23.0839 0.0897 1.9321 5.3180 0.0000 0.0000 0.0000 10.2790 9.2284 -18.6051 -3.9321 -12.0695 35.9784 -0.7675 -1.0911 -16.9800 -0.3238 -3.6572 10.1143 -4.4070 0.7905 5.8657 3.0582 0.8447 1.0486 5.5967 0.4600 -2.3174 -14.0557 -4.6635 -10.4862 12.3608 -7.5731 29.3713 6.1337 -3.6269 12.4390 0.0000 0.0000 0.0000 -88.5437 -4.8208 6.4498 13.6326 -22.2070 -2.6877 -0.0000 -0.0000 15.7230 1.5986 30.9076 0.8213 -7.1250 0.0000 -0.0000 -32.9527 57.6929 -11.0293 0.0000 0.0000 0.0000 83.4722 1.9875 2.7445 -19.3484 29.8493 -5.2031 0.0000 -0.0000 -12.5221 -10.9932 17.0768 -3.2649 7.1250 -0.0000 -0.0000 11.1750 -12.8430 8.5799
10.1987 17.7472 -14.9147 -1.0484 -32.0392 3.6152 0.0000 0.0000 0.0000 -20.1408 -6.1804 -15.1099 3.8713 11.9872 35.6866 1.4762 0.6812 -23.2307 0.0758 1.7766 4.8888 0.0000 0.0000 0.0000 10.0512 9.4278 -18.5289 -3.9387 -12.0783 36.0096 -0.7689 -0.9462 -16.9351 -0.3857 -3.9880 11.0428 -4.6089 0.6432 6.0353 3.0083 0.6277 1.1182 5.6770 0.3509 -2.3133 -13.8384 -4.3256 -9.9456 12.3101 -7.1362 28.8813 6.1151 -3.4254 12.0365 -0.0000 -0.0000 0.0000 -88.2056 -5.1313 6.6422 13.4016 -21.8728 -2.6010 -0.0000 -0.0000 15.7059 2.0681 30.3999 1.0469 -7.1250 0.0000 -0.0000 -32.0621 57.3663 -10.4279 -0.0000 -0.0000 0.0000 83.5836 1.7982 2.8149 -19.4956 30.0298 -5.2766 0.0000 -0.0000 -13.2978 -11.0973 16.6626 -3.2190 7.1250 -0.0000 -0.0000 11.1090 -13.2468 8.4313
10.2159 17.7461 -14.9109 -0.9955 -32.5301 3.4737 0.0000 0.0000 0.0000 -20.2968 -5.9711 -14.9871 3.8647 11.9781 35.6547 1.4809 0.9264 -23.3584 0.0815 1.8412 5.0669 0.0000 0.0000 0.0000 9.9544 9.6886 -18.4355 -3.9375 -12.0768 36.0043 -0.7689 -0.7668 -16.8623 -0.4339 -4.2271 11.7163 -4.6759 0.5516 6.0799 2.9660 0.4976 1.2643 5.6812 0.2778 -2.1695 -14.0051 -3.9998 -8.6621 12.6143 -6.7683 27.7094 6.2654 -3.2726 11.2635 0.0000 0.0000 0.0000 -87.8186 -5.5490 7.0757 13.2151 -21.6016 -2.5319 -0.0000 -0.0000 15.1163 2.2580 30.3361 1.1409 -7.1250 0.0000 -0.0000 -31.8249 57.3526 -10.3287 0.0000 0.0000 0.0000 83.6207 1.5171 3.1400 -19.7169 30.2998 -5.3878 0.0000 -0.0000 -14.3263 -11.4789 16.2330 -3.2490 7.1250 -0.0000 -0.0000 10.8593 -13.6444 8.1418
10.2327 17.7437 -14.9090 -1.0691 -33.0092 3.5131 0.0000 0.0000 0.0000 -20.2754 -5.6767 -15.0997 3.8640 11.9772 35.6513 1.4819 1.0095 -23.3972 0.0937 1.9743 5.4346 0.0000 0.0000 0.0000 9.9797 10.0201 -18.4659 -3.9271 -12.0628 35.9544 -0.7505 -0.7778 -16.6674 -0.3815 -3.9669 10.9835 -4.6310 0.4511 6.0563 2.9559 0.3665 1.3106 5.6551 0.2082 -2.0905 -13.6913 -3.9387 -9.2851 12.2394 -6.6357 28.4456 6.1105 -3.2113 11.6301 0.0000 0.0000 0.0000 -87.6259 -5.7687 6.9509 13.2034 -21.5846 -2.5276 -0.0000 -0.0000 14.8601 2.2195 30.6271 1.1311 -7.1250 0.0000 -0.0000 -32.1104 57.5900 -10.6243 0.0000 0.0000 0.0000 83.6208 1.2085 3.0939 -19.7207 30.3044 -5.3897 0.0000 -0.0000 -14.5972 -11.6769 16.3463 -3.3289 7.1250 -0.0000 -0.0000 10.7270 -13.5155 8.0686
10.2512 17.7446 -14.9006 -1.2271 -33.4510 3.6007 0.0000 0.0000 0.0000 -20.2001 -5.4325 -15.1864 3.8652 11.9789 35.6572 1.4812 1.1298 -23.4381 0.0902 1.9375 5.3330 0.0000 0.0000 0.0000 10.0648 10.3665 -18.4368 -3.9115 -12.0417 35.8798 -0.7316 -0.7540 -16.4497 -0.3496 -3.7988 10.5114 -4.5355 0.3237 6.1995 3.0130 0.1986 1.2243 5.6750 0.1301 -2.2378 -13.6252 -3.7448 -9.0867 12.0936 -6.3763 28.6038 6.0836 -3.1148 11.5994 0.0000 -0.0000 0.0000 -87.6032 -5.6976 6.5214 13.2348 -21.6302 -2.5392 -0.0000 -0.0000 15.0900 1.9631 31.0540 1.0130 -7.1250 0.0000 -0.0000 -32.7298 57.8937 -11.1062 0.0000 -0.0000 0.0000 83.5506 0.7532 2.9696 -19.6900 30.2670 -5.3742 0.0000 -0.0000 -14.5385 -11.4460 16.6008 -3.3107 7.1250 -0.0000 -0.0000 10.8787 -13.2802 8.2419
10.2695 17.7466 -14.8930 -1.3766 -33.9555 3.6732 0.0000 0.0000 0.0000 -20.1817 -5.3783 -15.1633 3.8662 11.9802 35.6620 1.4870 1.5109 -23.6338 0.0904 1.9395 5.3384 0.0000 0.0000 0.0000 10.1419 10.6802 -18.4231 -3.8928 -12.0163 35.7897 -0.7195 -0.6613 -16.2796 -0.3497 -3.7996 10.5135 -4.4625 0.3011 6.3470 3.0884 0.1695 1.1713 5.7163 0.1203 -2.3715 -13.6603 -3.6043 -8.8423 12.0838 -6.2030 28.6201 6.1104 -3.0519 11.5266 0.0000 -0.0000 0.0000 -87.5982 -5.7892 6.3442 13.1935 -21.5701 -2.5240 -0.0000 -0.0000 15.4660 1.8305 31.2010 0.9485 -7.1250 0.0000 -0.0000 -32.9882 57.9880 -11.2841 0.0000 -0.0000 0.0000 83.4506 0.3016 2.7490 -19.7356 30.3224 -5.3972 0.0000 -0.0000 -14.5520 -11.5537 16.3924 -3.3019 7.1250 -0.0000 -0.0000 10.8084 -13.4793 8.1405
10.2857 17.7475 -14.8850 -1.1656 -34.5349 3.6015 0.0000 0.0000 0.0000 -20.5084 -5.3656 -15.1574 3.8639 11.9771 35.6509 1.5024 1.9239 -23.9226 0.1165 2.2007 6.0608 0.0000 0.0000 0.0000 9.8582 10.9073 -18.5283 -3.8754 -11.9927 35.7061 -0.7087 -0.4767 -16.0869 -0.3335 -3.7111 10.2653 -4.6284 0.3135 6.2183 2.9993 0.1773 1.2725 5.7155 0.1174 -2.1956 -13.4914 -3.5448 -9.0331 12.0284 -6.1316 28.7875 6.0748 -3.0056 11.6112 -0.0000 0.0000 0.0000 -87.4125 -6.2246 6.2215 13.1083 -21.4457 -2.4928 -0.0000 -0.0000 15.8328 1.6232 31.2651 0.8426 -7.1250 0.0000 -0.0000 -33.2454 57.9966 -11.3926 -0.0000 0.0000 0.0000 83.5617 0.2182 2.1923 -19.6782 30.2527 -5.3683 0.0000 -0.0000 -14.3621 -11.9927 16.0585 -3.3629 7.1250 -0.0000 -0.0000 10.5185 -13.7777 7.8468
